<svg width="91" height="64" viewBox="0 0 91 64" fill="none" xmlns="http://www.w3.org/2000/svg">
<g clip-path="url(#clip0_54_1748)">
<path d="M91 64H0V0H91V64ZM2.26936 61.7538H88.7306V2.24623H2.26936V61.7538Z" fill="#1D1D1B"></path>
<path d="M31.1531 55.2033C18.2261 55.2033 7.7229 44.7953 7.7229 32.0118C7.7229 19.2165 18.238 8.82031 31.1531 8.82031C44.0801 8.82031 54.5833 19.2283 54.5833 32.0118C54.5833 44.7953 44.0682 55.2033 31.1531 55.2033ZM31.1531 11.0548C19.4855 11.0548 9.99226 20.4513 9.99226 32C9.99226 43.5487 19.4855 52.9453 31.1531 52.9453C42.8207 52.9453 52.314 43.5487 52.314 32C52.314 20.4513 42.8207 11.0548 31.1531 11.0548Z" fill="#1D1D1B"></path>
<path d="M59.8467 55.2032C46.9197 55.2032 36.4165 44.7953 36.4165 32.0118C36.4165 19.2165 46.9316 8.80853 59.8467 8.80853C72.7737 8.80853 83.2769 19.2165 83.2769 32.0118C83.2769 44.8071 72.7618 55.2032 59.8467 55.2032ZM59.8467 11.0548C48.1791 11.0548 38.6859 20.4513 38.6859 32.0118C38.6859 43.5605 48.1791 52.957 59.8467 52.957C71.5143 52.957 81.0076 43.5605 81.0076 32.0118C81.0076 20.4631 71.5143 11.0548 59.8467 11.0548Z" fill="#1D1D1B"></path>
</g>
<defs>
<clipPath id="clip0_54_1748">
<rect width="91" height="64" fill="white"></rect>
</clipPath>
</defs>
</svg>